<svg xmlns="http://www.w3.org/2000/svg" viewBox="0 0 320 420">
<defs><linearGradient id="skin" x1="0" x2="1"><stop stop-color="#252b36"/><stop offset="1" stop-color="#0d1118"/></linearGradient><linearGradient id="hot" x1="0" y1="0" x2="1" y2="1"><stop stop-color="#3d7cff"/><stop offset=".55" stop-color="#8c3cff"/><stop offset="1" stop-color="#d43ee8"/></linearGradient><filter id="glow"><feGaussianBlur stdDeviation="8" result="b"/><feMerge><feMergeNode in="b"/><feMergeNode in="SourceGraphic"/></feMerge></filter></defs>
<circle cx="160" cy="48" r="34" fill="url(#skin)"/><path d="M106 90 Q160 70 214 90 L248 143 222 183 210 340 110 340 98 183 72 143Z" fill="url(#skin)" stroke="#343c4a" stroke-width="3"/>
<path d="M102 99 Q127 82 156 99 L152 153 Q119 164 96 137Z" fill="url(#hot)" filter="url(#glow)"/><path d="M218 99 Q193 82 164 99 L168 153 Q201 164 224 137Z" fill="url(#hot)" filter="url(#glow)"/>
<path d="M83 112 Q63 122 48 161 L58 245 82 238 84 156 105 124Z" fill="url(#hot)"/><path d="M237 112 Q257 122 272 161 L262 245 238 238 236 156 215 124Z" fill="url(#hot)"/>
<path d="M91 174 Q72 178 68 221 L72 309 97 305 100 224Z" fill="url(#hot)" opacity=".95"/><path d="M229 174 Q248 178 252 221 L248 309 223 305 220 224Z" fill="url(#hot)" opacity=".95"/>
<path d="M160 158 L160 335" stroke="#394150" stroke-width="3"/><path d="M118 188 Q160 208 202 188M118 230 Q160 247 202 230M120 275 Q160 292 200 275" fill="none" stroke="#303846" stroke-width="3"/>
</svg>
